<?xml version="1.0" encoding="UTF-8" ?>
<!DOCTYPE svg PUBLIC "-//W3C//DTD SVG 1.1//EN" "http://www.w3.org/Graphics/SVG/1.1/DTD/svg11.dtd">
<svg width="1129pt" height="490pt" viewBox="0 0 1129 490" version="1.1" xmlns="http://www.w3.org/2000/svg">
<g id="#f7f7f7ff">
<path fill="#f7f7f7" opacity="1.00" d=" M 129.37 222.33 C 131.55 221.88 133.76 221.63 135.98 221.58 C 191.99 221.63 247.99 221.58 304.00 221.60 C 313.03 221.75 322.38 220.63 331.02 223.95 C 348.04 229.30 360.21 246.25 360.44 263.99 C 360.38 306.66 360.43 349.34 360.42 392.01 C 359.73 409.94 346.71 426.63 329.37 431.41 C 321.50 434.00 313.14 433.17 305.00 433.27 C 249.34 433.31 193.67 433.27 138.00 433.30 C 127.37 433.29 116.62 429.49 108.74 422.27 C 100.01 414.36 94.18 402.96 94.15 391.05 C 94.14 348.68 94.11 306.32 94.15 263.95 C 94.06 244.03 109.93 225.87 129.37 222.33 M 126.98 257.19 C 125.56 262.04 124.30 266.93 122.91 271.79 C 150.74 282.17 178.51 292.75 206.27 303.35 C 205.99 303.62 205.43 304.14 205.16 304.40 C 183.93 312.33 162.75 320.43 141.55 328.46 C 135.25 330.89 128.75 332.86 122.67 335.81 C 124.60 340.40 125.49 345.32 126.96 350.06 C 143.95 343.16 161.26 337.13 178.31 330.38 C 194.19 324.59 209.86 318.28 225.75 312.51 C 227.24 311.93 228.87 311.90 230.37 312.52 C 246.05 318.10 261.46 324.43 277.13 330.07 C 294.44 336.97 312.08 343.00 329.30 350.14 C 330.80 345.29 331.97 340.34 333.09 335.38 C 314.74 328.56 296.50 321.46 278.13 314.68 C 268.75 311.06 259.44 307.23 249.86 304.16 C 250.76 302.79 252.37 302.37 253.81 301.82 C 280.26 291.82 306.69 281.75 333.16 271.78 C 331.91 266.94 330.64 262.10 329.50 257.23 C 296.79 269.60 264.07 281.96 231.41 294.45 C 229.17 295.53 226.67 295.38 224.45 294.36 C 192.05 281.75 159.38 269.81 126.98 257.19 M 185.34 380.38 C 181.05 384.01 176.44 387.43 173.07 391.98 C 177.41 395.66 181.84 399.26 186.15 403.00 C 194.58 395.13 203.80 387.54 214.99 384.03 C 224.67 380.76 235.54 380.98 244.93 385.13 C 254.67 389.18 262.74 396.27 269.98 403.79 C 274.05 399.68 278.29 395.75 282.72 392.02 C 270.20 377.80 253.25 366.21 233.99 364.29 C 216.37 362.53 199.14 369.90 185.34 380.38 Z" />
<path fill="#f7f7f7" opacity="1.00" d=" M 578.28 242.48 C 579.76 242.55 581.25 242.53 582.75 242.41 C 583.26 250.93 582.88 259.47 583.00 268.00 C 582.94 284.67 583.11 301.35 582.90 318.02 C 581.31 317.89 579.72 317.83 578.13 317.85 C 577.87 299.24 578.10 280.62 578.03 262.00 C 578.13 255.50 577.75 248.97 578.28 242.48 Z" />
<path fill="#f7f7f7" opacity="1.00" d=" M 1021.23 242.86 C 1023.08 242.73 1024.95 242.73 1026.82 242.85 C 1026.91 267.84 1026.91 292.84 1026.82 317.84 C 1024.94 317.82 1023.08 317.81 1021.22 317.83 C 1021.05 292.84 1021.05 267.84 1021.23 242.86 Z" />
<path fill="#f7f7f7" opacity="1.00" d=" M 819.28 244.15 C 822.69 251.80 823.94 260.17 826.48 268.11 C 834.05 300.42 835.42 334.67 826.80 366.92 C 824.27 374.73 821.87 382.59 818.91 390.26 C 818.35 391.63 817.44 392.81 816.62 394.04 C 821.64 377.87 824.79 361.09 825.91 344.20 C 826.24 341.14 826.86 338.12 826.98 335.05 C 827.21 324.38 827.91 313.71 827.39 303.04 C 826.66 290.02 826.13 276.94 823.74 264.09 C 822.42 257.41 820.65 250.83 819.28 244.15 Z" />
<path fill="#f7f7f7" opacity="1.00" d=" M 578.06 395.04 C 579.68 395.08 581.31 395.06 582.94 394.98 C 583.03 405.43 583.03 415.89 582.94 426.34 C 581.32 426.23 579.70 426.21 578.09 426.25 C 577.96 415.85 578.00 405.44 578.06 395.04 Z" />
<path fill="#f7f7f7" opacity="1.00" d=" M 1021.16 395.06 C 1023.05 395.07 1024.95 395.07 1026.86 395.06 C 1026.88 405.43 1026.93 415.80 1026.83 426.17 C 1024.94 426.29 1023.05 426.30 1021.19 426.19 C 1021.06 415.81 1021.09 405.43 1021.16 395.06 Z" />
</g>
<g id="#4593c3ff">
<path fill="#4593c3" opacity="1.00" d=" M 161.82 51.81 C 166.20 49.58 171.24 54.22 170.60 58.72 C 169.71 60.74 168.20 62.39 166.79 64.06 C 170.03 75.42 173.66 86.66 176.92 98.02 C 181.66 110.87 185.23 124.12 189.80 137.04 C 192.96 146.64 195.81 156.35 199.07 165.91 C 199.54 168.75 202.89 168.03 204.97 168.21 C 220.87 167.99 236.79 168.43 252.67 167.86 C 256.97 154.73 261.43 141.65 265.62 128.48 C 267.87 119.74 271.66 111.53 273.88 102.78 C 276.51 97.32 276.14 90.52 280.02 85.73 C 278.87 95.26 275.31 104.31 273.60 113.74 C 270.92 124.64 267.94 135.46 265.35 146.38 C 263.62 152.52 262.78 158.90 260.33 164.82 C 260.03 165.91 259.84 167.02 259.75 168.14 C 269.37 168.74 279.01 167.99 288.64 168.37 C 288.76 178.13 288.76 187.89 288.63 197.65 C 256.09 197.83 223.54 197.65 191.00 197.72 C 182.78 197.80 174.55 197.45 166.33 198.01 C 166.60 188.10 166.50 178.19 166.42 168.28 C 175.06 167.91 183.70 168.28 192.34 168.05 C 192.17 162.66 189.63 157.77 188.58 152.54 C 181.63 123.49 174.37 94.52 166.31 65.77 C 164.64 63.88 161.48 64.17 159.85 62.15 C 156.89 59.14 157.72 53.37 161.82 51.81 Z" />
<path fill="#4593c3" opacity="1.00" d=" M 285.43 52.36 C 289.27 50.67 294.31 52.77 294.74 57.20 C 295.45 62.54 288.29 66.02 284.38 62.62 C 281.08 60.04 281.46 54.10 285.43 52.36 Z" />
<path fill="#4593c3" opacity="1.00" d=" M 543.02 194.93 C 559.82 195.07 576.63 194.98 593.43 194.97 C 593.98 201.30 593.61 207.65 593.65 213.99 C 593.58 257.61 593.82 301.22 593.53 344.84 C 604.91 345.45 616.32 344.60 627.70 345.25 C 627.86 358.49 627.60 371.72 627.73 384.96 C 616.32 385.26 604.90 384.70 593.50 385.23 C 593.73 402.36 593.81 419.50 593.52 436.63 C 583.36 437.30 573.17 436.74 563.00 436.92 C 556.24 436.72 549.43 437.41 542.71 436.50 C 542.52 419.39 542.61 402.28 542.69 385.17 C 510.12 384.86 477.53 385.06 444.95 385.06 C 444.87 370.34 445.12 355.63 444.91 340.92 C 444.36 337.34 447.22 334.76 448.96 332.01 C 480.37 286.36 511.55 240.52 543.02 194.93 M 578.28 242.48 C 577.75 248.97 578.13 255.50 578.03 262.00 C 578.10 280.62 577.87 299.24 578.13 317.85 C 579.72 317.83 581.31 317.89 582.90 318.02 C 583.11 301.35 582.94 284.67 583.00 268.00 C 582.88 259.47 583.26 250.93 582.75 242.41 C 581.25 242.53 579.76 242.55 578.28 242.48 M 517.43 297.33 C 506.67 313.24 495.71 329.01 485.11 345.03 C 504.28 344.90 523.48 345.32 542.65 344.90 C 542.57 316.90 542.69 288.89 542.58 260.88 C 533.85 272.78 526.00 285.31 517.43 297.33 M 578.06 395.04 C 578.00 405.44 577.96 415.85 578.09 426.25 C 579.70 426.21 581.32 426.23 582.94 426.34 C 583.03 415.89 583.03 405.43 582.94 394.98 C 581.31 395.06 579.68 395.08 578.06 395.04 Z" />
<path fill="#4593c3" opacity="1.00" d=" M 986.08 194.96 C 1002.96 195.04 1019.86 194.94 1036.75 195.03 C 1036.88 245.00 1036.57 294.98 1036.89 344.95 C 1047.98 345.22 1059.08 345.03 1070.18 345.05 C 1071.25 349.95 1070.46 355.02 1070.66 360.00 C 1070.45 368.34 1071.14 376.70 1070.45 385.03 C 1059.15 385.13 1047.85 384.71 1036.57 385.28 C 1036.73 402.39 1036.84 419.53 1036.55 436.64 C 1024.38 437.29 1012.18 436.74 1000.00 436.92 C 995.24 436.86 990.44 437.26 985.73 436.47 C 985.62 419.37 985.72 402.27 985.72 385.17 C 953.14 384.85 920.55 385.06 887.97 385.05 C 888.04 369.69 887.95 354.34 888.01 338.99 C 888.71 335.62 891.50 333.11 893.27 330.23 C 924.23 285.16 954.97 239.92 986.08 194.96 M 1021.23 242.86 C 1021.05 267.84 1021.05 292.84 1021.22 317.83 C 1023.08 317.81 1024.94 317.82 1026.82 317.84 C 1026.91 292.84 1026.91 267.84 1026.82 242.85 C 1024.95 242.73 1023.08 242.73 1021.23 242.86 M 975.49 275.49 C 962.28 294.64 949.28 313.92 936.14 333.11 C 933.53 337.01 930.61 340.73 928.55 344.98 C 947.59 345.11 966.64 345.17 985.68 344.90 C 985.74 316.88 985.61 288.86 985.73 260.84 C 981.88 265.41 978.88 270.60 975.49 275.49 M 1021.16 395.06 C 1021.09 405.43 1021.06 415.81 1021.19 426.19 C 1023.05 426.30 1024.94 426.29 1026.83 426.17 C 1026.93 415.80 1026.88 405.43 1026.86 395.06 C 1024.95 395.07 1023.05 395.07 1021.16 395.06 Z" />
<path fill="#4593c3" opacity="1.00" d=" M 388.31 304.00 C 388.51 284.91 387.87 265.80 388.65 246.72 C 389.24 264.80 388.68 282.91 388.91 301.00 C 388.86 331.00 388.93 361.00 388.87 391.00 C 388.83 396.07 389.13 401.16 388.61 406.22 C 388.47 403.15 388.29 400.08 388.28 397.01 C 388.33 366.01 388.29 335.01 388.31 304.00 Z" />
</g>
<g id="#6cb6e5ff">
<path fill="#6cb6e5" opacity="1.00" d=" M 259.75 168.14 C 259.84 167.02 260.03 165.91 260.33 164.82 C 260.76 165.47 261.62 166.76 262.05 167.40 C 271.20 167.73 280.36 167.38 289.52 167.47 C 289.64 177.71 289.14 187.96 289.70 198.19 C 304.12 198.57 318.56 198.27 332.98 198.34 C 348.23 197.50 363.94 203.35 374.41 214.58 C 382.68 223.14 388.34 234.72 388.65 246.72 C 387.87 265.80 388.51 284.91 388.31 304.00 C 388.29 335.01 388.33 366.01 388.28 397.01 C 388.29 400.08 388.47 403.15 388.61 406.22 C 388.15 419.89 380.85 432.78 370.58 441.58 C 361.20 450.06 348.49 454.02 336.01 454.28 C 267.67 454.26 199.34 454.26 131.00 454.28 C 123.08 454.24 115.02 454.74 107.26 452.81 C 89.87 448.90 74.79 435.49 69.43 418.42 C 67.99 413.75 66.48 409.00 66.45 404.07 C 66.45 352.03 66.46 299.99 66.44 247.94 C 66.36 242.71 68.22 237.74 69.86 232.86 C 75.45 216.75 89.69 204.15 106.18 200.04 C 114.21 197.46 122.72 198.57 131.00 198.36 C 142.78 198.18 154.57 198.73 166.33 198.01 C 174.55 197.45 182.78 197.80 191.00 197.72 C 223.54 197.65 256.09 197.83 288.63 197.65 C 288.76 187.89 288.76 178.13 288.64 168.37 C 279.01 167.99 269.37 168.74 259.75 168.14 M 129.37 222.33 C 109.93 225.87 94.06 244.03 94.15 263.95 C 94.11 306.32 94.14 348.68 94.15 391.05 C 94.18 402.96 100.01 414.36 108.74 422.27 C 116.62 429.49 127.37 433.29 138.00 433.30 C 193.67 433.27 249.34 433.31 305.00 433.27 C 313.14 433.17 321.50 434.00 329.37 431.41 C 346.71 426.63 359.73 409.94 360.42 392.01 C 360.43 349.34 360.38 306.66 360.44 263.99 C 360.21 246.25 348.04 229.30 331.02 223.95 C 322.38 220.63 313.03 221.75 304.00 221.60 C 247.99 221.58 191.99 221.63 135.98 221.58 C 133.76 221.63 131.55 221.88 129.37 222.33 Z" />
<path fill="#6cb6e5" opacity="1.00" d=" M 749.30 189.97 C 757.59 188.66 765.95 190.15 774.15 191.42 C 788.63 193.91 802.03 201.24 812.41 211.56 C 822.99 222.90 830.06 237.04 834.60 251.77 C 839.85 266.27 841.13 281.75 842.95 296.95 C 844.50 322.72 843.53 348.93 837.05 374.03 C 833.24 385.73 829.07 397.57 821.72 407.58 C 811.66 422.93 795.08 433.11 777.46 437.43 C 762.95 440.29 747.77 440.42 733.43 436.56 C 719.48 432.26 706.69 423.86 697.95 412.08 C 693.95 406.87 690.83 401.06 687.80 395.26 C 683.48 386.19 681.03 376.39 678.25 366.78 C 675.05 352.42 674.04 337.69 673.02 323.06 C 672.69 306.54 674.17 290.04 676.60 273.71 C 680.23 256.55 684.34 238.98 693.95 224.04 C 699.59 214.31 707.72 206.07 717.27 200.14 C 726.75 193.81 738.12 191.19 749.30 189.97 M 751.49 226.79 C 746.38 228.79 742.55 233.10 739.69 237.64 C 731.88 250.70 730.05 266.16 728.18 280.97 C 728.17 288.01 726.73 294.96 727.00 302.01 C 726.96 328.84 726.08 356.30 734.10 382.24 C 737.05 389.75 740.24 397.91 747.18 402.65 C 753.67 407.46 763.63 407.31 769.54 401.61 C 775.76 396.65 778.50 388.94 781.58 381.90 C 786.34 366.08 787.73 349.47 788.23 333.04 C 789.45 318.01 788.16 302.96 787.85 287.93 C 786.72 276.10 785.65 264.16 782.13 252.75 C 779.38 243.97 775.73 234.61 767.97 229.07 C 763.31 225.56 756.93 225.14 751.49 226.79 M 819.28 244.15 C 820.65 250.83 822.42 257.41 823.74 264.09 C 826.13 276.94 826.66 290.02 827.39 303.04 C 827.91 313.71 827.21 324.38 826.98 335.05 C 826.86 338.12 826.24 341.14 825.91 344.20 C 824.79 361.09 821.64 377.87 816.62 394.04 C 817.44 392.81 818.35 391.63 818.91 390.26 C 821.87 382.59 824.27 374.73 826.80 366.92 C 835.42 334.67 834.05 300.42 826.48 268.11 C 823.94 260.17 822.69 251.80 819.28 244.15 Z" />
</g>
<g id="#262626ff">
<path fill="#262626" opacity="1.00" d=" M 126.98 257.19 C 159.38 269.81 192.05 281.75 224.45 294.36 C 226.67 295.38 229.17 295.53 231.41 294.45 C 264.07 281.96 296.79 269.60 329.50 257.23 C 330.64 262.10 331.91 266.94 333.16 271.78 C 306.69 281.75 280.26 291.82 253.81 301.82 C 252.37 302.37 250.76 302.79 249.86 304.16 C 259.44 307.23 268.75 311.06 278.13 314.68 C 296.50 321.46 314.74 328.56 333.09 335.38 C 331.97 340.34 330.80 345.29 329.30 350.14 C 312.08 343.00 294.44 336.97 277.13 330.07 C 261.46 324.43 246.05 318.10 230.37 312.52 C 228.87 311.90 227.24 311.93 225.75 312.51 C 209.86 318.28 194.19 324.59 178.31 330.38 C 161.26 337.13 143.95 343.16 126.96 350.06 C 125.49 345.32 124.60 340.40 122.67 335.81 C 128.75 332.86 135.25 330.89 141.55 328.46 C 162.75 320.43 183.93 312.33 205.16 304.40 C 205.43 304.14 205.99 303.62 206.27 303.35 C 178.51 292.75 150.74 282.17 122.91 271.79 C 124.30 266.93 125.56 262.04 126.98 257.19 Z" />
<path fill="#262626" opacity="1.00" d=" M 185.34 380.38 C 199.14 369.90 216.37 362.53 233.99 364.29 C 253.25 366.21 270.20 377.80 282.72 392.02 C 278.29 395.75 274.05 399.68 269.98 403.79 C 262.74 396.27 254.67 389.18 244.93 385.13 C 235.54 380.98 224.67 380.76 214.99 384.03 C 203.80 387.54 194.58 395.13 186.15 403.00 C 181.84 399.26 177.41 395.66 173.07 391.98 C 176.44 387.43 181.05 384.01 185.34 380.38 Z" />
</g>
</svg>
